<?xml version="1.0" encoding="UTF-8"?>
<svg id="Livello_2" data-name="Livello 2" xmlns="http://www.w3.org/2000/svg" xmlns:xlink="http://www.w3.org/1999/xlink" viewBox="0 0 210.06 190.41">
  <defs>
    <style>
      .cls-1 {
        fill: url(#Sfumatura_senza_nome_63);
      }

      .cls-2 {
        fill: url(#Sfumatura_senza_nome_63-2);
      }
    </style>
    <linearGradient id="Sfumatura_senza_nome_63" data-name="Sfumatura senza nome 63" x1="157.97" y1="195.98" x2="157.97" y2="2.25" gradientUnits="userSpaceOnUse">
      <stop offset="0" stop-color="#108880"/>
      <stop offset=".14" stop-color="#057877"/>
      <stop offset=".28" stop-color="#425b9e"/>
      <stop offset=".43" stop-color="#70507f"/>
      <stop offset=".57" stop-color="#9a3d53"/>
      <stop offset=".72" stop-color="#c22924"/>
      <stop offset=".86" stop-color="#e97410"/>
      <stop offset="1" stop-color="#f0e75d"/>
    </linearGradient>
    <linearGradient id="Sfumatura_senza_nome_63-2" data-name="Sfumatura senza nome 63" x1="1129.62" y1="195.98" x2="1129.62" y2="2.25" gradientTransform="translate(1181.7) rotate(-180) scale(1 -1)" xlink:href="#Sfumatura_senza_nome_63"/>
  </defs>
  <g id="Livello_1-2" data-name="Livello 1">
    <g>
      <path class="cls-1" d="M105.89,189.99c2.95.28,5.94.42,8.96.42,52.58,0,95.21-42.63,95.21-95.21C210.06,42.62,167.43,0,114.85,0c-3.03,0-6.02.14-8.96.42,48.38,4.51,86.25,45.22,86.25,94.79,0,49.55-37.87,90.28-86.25,94.79Z"/>
      <path class="cls-2" d="M104.17,189.99c-2.95.28-5.94.42-8.96.42C42.63,190.41,0,147.78,0,95.21S42.63,0,95.21,0C98.23,0,101.22.14,104.17.42,55.79,4.93,17.92,45.65,17.92,95.21c0,49.55,37.87,90.28,86.25,94.79Z"/>
    </g>
  </g>
</svg>